<?xml version="1.0" encoding="UTF-8" standalone="no"?>
<svg
   viewBox="0 0 286.55 179.21"
   version="1.1"
   id="svg41"
   sodipodi:docname="Logo Amarula Solutions-inverted.svg"
   inkscape:version="1.1.2 (0a00cf5339, 2022-02-04)"
   xmlns:inkscape="http://www.inkscape.org/namespaces/inkscape"
   xmlns:sodipodi="http://sodipodi.sourceforge.net/DTD/sodipodi-0.dtd"
   xmlns="http://www.w3.org/2000/svg"
   xmlns:svg="http://www.w3.org/2000/svg"
   xmlns:rdf="http://www.w3.org/1999/02/22-rdf-syntax-ns#"
   xmlns:cc="http://creativecommons.org/ns#"
   xmlns:dc="http://purl.org/dc/elements/1.1/">
  <sodipodi:namedview
     id="namedview43"
     pagecolor="#ffffff"
     bordercolor="#666666"
     borderopacity="1.0"
     inkscape:pageshadow="2"
     inkscape:pageopacity="0.0"
     inkscape:pagecheckerboard="0"
     showgrid="false"
     inkscape:zoom="2.1734277"
     inkscape:cx="221.76951"
     inkscape:cy="50.381247"
     inkscape:window-width="1920"
     inkscape:window-height="1011"
     inkscape:window-x="0"
     inkscape:window-y="0"
     inkscape:window-maximized="1"
     inkscape:current-layer="svg41" />
  <defs
     id="defs4">
    <style
       id="style2">.cls-1{fill:#fdcb0e;}.cls-2{fill:#000100;}</style>
  </defs>
  <title
     id="title6">Logo amarula-solution</title>
  <g
     id="g20">
    <path
       id="path22"
       class="cls-1"
       d="m 26.28,12.32 a 9.8994949,9.8994949 0 0 1 -14,14 C 8.47,22.43 -3.07,4.63 0.77,0.78 4.61,-3.07 22.42,8.47 26.27,12.33" />
  </g>
  <g
     id="g24"
     style="fill:#ffffff">
    <path
       id="path26"
       class="cls-2"
       d="M 41.5,168 H 30.62 v 2.87 h 10.82 q 7.3,0 7.3,3 v 2 q 0,3.3 -7.41,3.3 H 30.62 q -7.58,0 -7.58,-3.57 v -0.81 h 2.87 a 7,7 0 0 1 4.17,0.92 q 0.49,0.7 0.54,0.76 h 10.55 v -2.81 H 30.62 a 22.74,22.74 0 0 1 -4.65,-0.32 Q 23,172.72 23,170.6 v -2.27 q 0,-3.41 7.41,-3.41 h 10.76 a 17.39,17.39 0 0 1 4.44,0.54 q 3.14,0.81 3.14,2.59 v 1.52 Q 41.93,169.84 41.5,168"
       style="fill:#ffffff" />
  </g>
  <path
     id="path28"
     class="cls-2"
     d="m 77.32,168 h -11 v 8.5 h 11 z m 0.16,11.2 H 66.06 a 21.18,21.18 0 0 1 -2.81,-0.22 q -4.55,-0.65 -4.55,-3.9 v -5.95 q 0,-4.06 7.36,-4.06 h 11.42 a 19.37,19.37 0 0 1 2.22,0.11 q 5.09,0.43 5.09,4 v 5.9 q 0,4.12 -7.3,4.11"
     style="fill:#ffffff" />
  <g
     id="g30"
     style="fill:#ffffff">
    <path
       id="path32"
       class="cls-2"
       d="m 99.29,178.94 a 25.27,25.27 0 0 1 -4.49,0.27 v -19.86 h 7.47 v 16.94 q 0,2 -3,2.65"
       style="fill:#ffffff" />
  </g>
  <g
     id="g34"
     style="fill:#ffffff">
    <path
       id="path36"
       class="cls-2"
       d="m 136.13,179.1 h -1.19 q -0.32,0 -1,-0.05 a 14,14 0 0 1 -4.76,-1.35 13.26,13.26 0 0 1 -6.66,1.52 24.75,24.75 0 0 1 -6.11,-0.7 q -4.22,-1.08 -4.22,-3.46 v -9.9 h 2.22 a 17.24,17.24 0 0 1 1.84,0.11 q 3.52,0.38 3.52,2.82 v 8.44 h 8.77 v -11.44 h 7.58 z"
       style="fill:#ffffff" />
  </g>
  <g
     id="g38"
     style="fill:#ffffff">
    <path
       id="path40"
       class="cls-2"
       d="m 156.75,179.21 a 20.63,20.63 0 0 1 -2.43,-0.16 q -3.79,-0.43 -3.79,-2.81 V 168 h -4.44 v -2.92 h 4.44 v -5.74 a 29.23,29.23 0 0 1 4.44,0.22 q 3,0.6 3,2.54 v 3 h 5.46 a 2.54,2.54 0 0 1 -0.22,1 q -0.87,1.89 -5.25,1.89 v 8.44 h 5.46 q 0,2.71 -6.71,2.71"
       style="fill:#ffffff" />
  </g>
  <g
     id="g42"
     style="fill:#ffffff">
    <path
       id="path44"
       class="cls-2"
       d="m 181,175.26 a 3.33,3.33 0 0 1 -2.16,3.14 9.12,9.12 0 0 1 -4,0.81 h -1.41 V 165.09 H 181 Z m -7.58,-15.91 H 181 v 2.92 h -7.58 z"
       style="fill:#ffffff" />
  </g>
  <path
     id="path46"
     class="cls-2"
     d="m 209.56,168 h -11 v 8.5 h 11 z m 0.16,11.2 H 198.3 a 21.15,21.15 0 0 1 -2.81,-0.22 q -4.55,-0.65 -4.55,-3.9 v -5.95 q 0,-4.06 7.36,-4.06 h 11.42 a 19.4,19.4 0 0 1 2.22,0.11 q 5.08,0.43 5.09,4 v 5.9 q 0,4.12 -7.3,4.11"
     style="fill:#ffffff" />
  <g
     id="g48"
     style="fill:#ffffff">
    <path
       id="path50"
       class="cls-2"
       d="m 247.87,179 q -4.55,-0.65 -4.55,-3.52 V 168 h -8.76 v 11.2 H 227 v -14.11 h 1.08 a 13,13 0 0 1 5.79,1.52 13.58,13.58 0 0 1 6.71,-1.52 25.14,25.14 0 0 1 6.06,0.65 q 4.17,1 4.17,3.46 v 10 a 21.84,21.84 0 0 1 -2.92,-0.22"
       style="fill:#ffffff" />
  </g>
  <g
     id="g52"
     style="fill:#ffffff">
    <path
       id="path54"
       class="cls-2"
       d="m 279.2,168 h -10.88 v 2.87 h 10.82 q 7.3,0 7.3,3 v 2 q 0,3.3 -7.41,3.3 h -10.71 q -7.58,0 -7.58,-3.57 v -0.81 h 2.87 a 7,7 0 0 1 4.17,0.92 q 0.48,0.7 0.54,0.76 h 10.55 v -2.81 h -10.55 a 22.77,22.77 0 0 1 -4.66,-0.32 q -2.92,-0.65 -2.92,-2.76 v -2.27 q 0,-3.41 7.42,-3.41 h 10.71 a 17.38,17.38 0 0 1 4.44,0.54 q 3.14,0.81 3.14,2.59 v 1.52 q -6.82,0.27 -7.25,-1.57"
       style="fill:#ffffff" />
  </g>
  <path
     id="path56"
     class="cls-1"
     d="m 41.65,144.87 h -11 v 2.81 h 11 z m -11.42,5.52 q -7.14,0 -7.14,-3.63 v -1.08 a 3.11,3.11 0 0 1 2.38,-3.14 14.13,14.13 0 0 1 4.38,-0.49 h 11.8 v -2.87 h -11.1 q -5.19,0 -5.57,-2.65 v -0.27 h 17.54 a 13.88,13.88 0 0 1 3.95,0.59 q 2.71,0.82 2.71,2.38 v 11.15 z" />
  <g
     id="g58">
    <path
       id="path60"
       class="cls-1"
       d="m 97.06,150.39 a 17.58,17.58 0 0 1 -4.27,-0.54 q -3.19,-0.7 -3.19,-2.16 v -8.5 h -4.72 a 3.12,3.12 0 0 1 0.27,1.19 v 10 H 85 a 15.69,15.69 0 0 1 -4.38,-0.6 q -3,-0.87 -3,-2.6 v -8 h -4.53 v 11.2 h -7.53 v -14.06 h 1 a 12.8,12.8 0 0 1 5.79,1.41 11.11,11.11 0 0 1 5.36,-1.41 10.28,10.28 0 0 1 6.11,1.57 q 1.68,-0.87 2.06,-1 a 9.17,9.17 0 0 1 3.46,-0.54 q 7.74,0 7.74,3.52 v 10.55 z" />
  </g>
  <path
     id="path62"
     class="cls-1"
     d="m 132,144.87 h -11 v 2.81 h 11 z m -11.42,5.52 q -7.14,0 -7.14,-3.63 v -1.08 a 3.11,3.11 0 0 1 2.38,-3.14 14.13,14.13 0 0 1 4.38,-0.49 H 132 v -2.87 h -11.14 q -5.19,0 -5.57,-2.65 v -0.27 h 17.53 a 13.89,13.89 0 0 1 3.95,0.59 q 2.71,0.82 2.71,2.38 v 11.15 z" />
  <g
     id="g64">
    <path
       id="path66"
       class="cls-1"
       d="m 177.95,142.05 q -5.84,0 -5.84,-2.87 h -8.76 v 11.2 h -7.58 v -14.11 h 1.08 a 13,13 0 0 1 5.79,1.51 13.56,13.56 0 0 1 6.71,-1.51 25,25 0 0 1 6.06,0.65 q 4.17,1 4.17,3.46 v 1.68 z" />
  </g>
  <g
     id="g68">
    <path
       id="path70"
       class="cls-1"
       d="m 219.77,150.28 h -1.19 c -0.22,0 -0.54,0 -1,-0.05 a 14,14 0 0 1 -4.76,-1.35 13.27,13.27 0 0 1 -6.66,1.52 24.74,24.74 0 0 1 -6.11,-0.7 q -4.22,-1.08 -4.22,-3.46 v -9.9 h 2.22 a 17.2,17.2 0 0 1 1.84,0.11 q 3.52,0.38 3.52,2.82 v 8.44 h 8.77 v -11.44 h 7.58 z" />
  </g>
  <g
     id="g72">
    <path
       id="path74"
       class="cls-1"
       d="m 240.61,150.12 a 25.31,25.31 0 0 1 -4.49,0.27 v -19.86 h 7.46 v 16.94 q 0,2 -3,2.65" />
  </g>
  <path
     id="path76"
     class="cls-1"
     d="m 278.43,144.87 h -11 v 2.81 h 11 z M 267,150.39 q -7.15,0 -7.14,-3.63 v -1.08 a 3.11,3.11 0 0 1 2.38,-3.14 14.15,14.15 0 0 1 4.39,-0.49 h 11.8 v -2.87 h -11.1 q -5.19,0 -5.57,-2.65 v -0.27 h 17.53 a 13.89,13.89 0 0 1 3.95,0.59 q 2.71,0.82 2.71,2.38 v 11.15 z" />
  <g
     id="g78"
     style="fill:#ffffff">
    <path
       id="path80"
       class="cls-2"
       d="M 261.49,115.94 H 161.13 c -10.09,-0.1 -25,-6.84 -25,-25 V 47.32 c 0,-2.57 -1,-11.17 -11.17,-11.17 H 47.71 c -10.62,0 -11.17,9.31 -11.17,11.18 v 43.62 c 0,10.37 8.89,11.42 11.62,11.49 h 62.65 a 6.75,6.75 0 1 1 0,13.5 H 48 c -10.09,-0.1 -25,-6.84 -25,-25 V 47.32 C 23,37.4 29.59,22.65 47.67,22.65 H 125 c 18.08,0 24.66,14.75 24.67,24.66 v 43.64 c 0,10.82 9.64,11.47 11.57,11.49 h 100.25 c 0.12,0 11.57,-0.14 11.57,-12.68 0,-4.86 -1.15,-8.43 -3.42,-10.63 -3.15,-3 -7.85,-2.93 -7.9,-2.92 h -77.32 c -10.09,-0.11 -25,-6.85 -25,-25 v -3.9 c 0,-9.92 6.59,-24.67 24.67,-24.67 h 77.77 c 18.08,0 24.66,14.75 24.67,24.66 a 6.75,6.75 0 0 1 -6.74,6.76 v 0 A 6.75,6.75 0 0 1 273,47.38 C 272.95,44.73 272,36.15 261.83,36.15 H 184.1 c -10.16,0 -11.12,8.6 -11.17,11.24 v 3.83 c 0,10.83 9.63,11.47 11.56,11.49 h 76.79 c 1.83,-0.06 10.64,0 17.54,6.53 5.12,4.84 7.72,11.74 7.72,20.51 0,19.07 -15.38,26.18 -25.07,26.18"
       style="fill:#ffffff" />
  </g>
  <metadata
     id="metadata1056">
    <rdf:RDF>
      <cc:Work
         rdf:about="">
        <dc:title>Logo amarula-solution</dc:title>
      </cc:Work>
    </rdf:RDF>
  </metadata>
</svg>
