<svg xmlns="http://www.w3.org/2000/svg" viewBox="0 0 286.55 179.21"><defs><style>.cls-1{fill:#fdcb0e;}.cls-2{fill:#000100;}</style></defs><title>Logo amarula-solution</title><g id="Layer_2" data-name="Layer 2"><g id="Laag_1" data-name="Laag 1"><g id="g20"><path id="path22" class="cls-1" d="M26.28,12.32a9.87,9.87,0,0,1-14,14C8.47,22.43-3.07,4.63.77.78s21.65,7.69,25.5,11.55"/></g><g id="g24"><path id="path26" class="cls-2" d="M41.5,168H30.62v2.87H41.44q7.3,0,7.3,3v2q0,3.3-7.41,3.3H30.62q-7.58,0-7.58-3.57v-.81h2.87a7,7,0,0,1,4.17.92q.49.7.54.76H41.17v-2.81H30.62a22.74,22.74,0,0,1-4.65-.32Q23,172.72,23,170.6v-2.27q0-3.41,7.41-3.41H41.17a17.39,17.39,0,0,1,4.44.54q3.14.81,3.14,2.59v1.52q-6.82.27-7.25-1.57"/></g><path id="path28" class="cls-2" d="M77.32,168h-11v8.5h11Zm.16,11.2H66.06a21.18,21.18,0,0,1-2.81-.22q-4.55-.65-4.55-3.9v-5.95q0-4.06,7.36-4.06H77.48a19.37,19.37,0,0,1,2.22.11q5.09.43,5.09,4v5.9q0,4.12-7.3,4.11"/><g id="g30"><path id="path32" class="cls-2" d="M99.29,178.94a25.27,25.27,0,0,1-4.49.27V159.35h7.47v16.94q0,2-3,2.65"/></g><g id="g34"><path id="path36" class="cls-2" d="M136.13,179.1h-1.19q-.32,0-1-.05a14,14,0,0,1-4.76-1.35,13.26,13.26,0,0,1-6.66,1.52,24.75,24.75,0,0,1-6.11-.7q-4.22-1.08-4.22-3.46v-9.9h2.22a17.24,17.24,0,0,1,1.84.11q3.52.38,3.52,2.82v8.44h8.77V165.09h7.58Z"/></g><g id="g38"><path id="path40" class="cls-2" d="M156.75,179.21a20.63,20.63,0,0,1-2.43-.16q-3.79-.43-3.79-2.81V168h-4.44v-2.92h4.44v-5.74a29.23,29.23,0,0,1,4.44.22q3,.6,3,2.54v3h5.46a2.54,2.54,0,0,1-.22,1q-.87,1.89-5.25,1.89v8.44h5.46q0,2.71-6.71,2.71"/></g><g id="g42"><path id="path44" class="cls-2" d="M181,175.26a3.33,3.33,0,0,1-2.16,3.14,9.12,9.12,0,0,1-4,.81h-1.41V165.09H181Zm-7.58-15.91H181v2.92h-7.58Z"/></g><path id="path46" class="cls-2" d="M209.56,168h-11v8.5h11Zm.16,11.2H198.3a21.15,21.15,0,0,1-2.81-.22q-4.55-.65-4.55-3.9v-5.95q0-4.06,7.36-4.06h11.42a19.4,19.4,0,0,1,2.22.11q5.08.43,5.09,4v5.9q0,4.12-7.3,4.11"/><g id="g48"><path id="path50" class="cls-2" d="M247.87,179q-4.55-.65-4.55-3.52V168h-8.76v11.2H227V165.09h1.08a13,13,0,0,1,5.79,1.52,13.58,13.58,0,0,1,6.71-1.52,25.14,25.14,0,0,1,6.06.65q4.17,1,4.17,3.46v10a21.84,21.84,0,0,1-2.92-.22"/></g><g id="g52"><path id="path54" class="cls-2" d="M279.2,168H268.32v2.87h10.82q7.3,0,7.3,3v2q0,3.3-7.41,3.3H268.32q-7.58,0-7.58-3.57v-.81h2.87a7,7,0,0,1,4.17.92q.48.7.54.76h10.55v-2.81H268.32a22.77,22.77,0,0,1-4.66-.32q-2.92-.65-2.92-2.76v-2.27q0-3.41,7.42-3.41h10.71a17.38,17.38,0,0,1,4.44.54q3.14.81,3.14,2.59v1.52q-6.82.27-7.25-1.57"/></g><path id="path56" class="cls-1" d="M41.65,144.87h-11v2.81h11Zm-11.42,5.52q-7.14,0-7.14-3.63v-1.08a3.11,3.11,0,0,1,2.38-3.14,14.13,14.13,0,0,1,4.38-.49h11.8v-2.87H30.55q-5.19,0-5.57-2.65v-.27H42.52a13.88,13.88,0,0,1,3.95.59q2.71.82,2.71,2.38v11.15Z"/><g id="g58"><path id="path60" class="cls-1" d="M97.06,150.39a17.58,17.58,0,0,1-4.27-.54q-3.19-.7-3.19-2.16v-8.5H84.88a3.12,3.12,0,0,1,.27,1.19v10H85a15.69,15.69,0,0,1-4.38-.6q-3-.87-3-2.6v-8H73.09v11.2H65.56V136.32h1a12.8,12.8,0,0,1,5.79,1.41,11.11,11.11,0,0,1,5.36-1.41,10.28,10.28,0,0,1,6.11,1.57q1.68-.87,2.06-1a9.17,9.17,0,0,1,3.46-.54q7.74,0,7.74,3.52v10.55Z"/></g><path id="path62" class="cls-1" d="M132,144.87H121v2.81h11Zm-11.42,5.52q-7.14,0-7.14-3.63v-1.08a3.11,3.11,0,0,1,2.38-3.14,14.13,14.13,0,0,1,4.38-.49H132v-2.87H120.86q-5.19,0-5.57-2.65v-.27h17.53a13.89,13.89,0,0,1,3.95.59q2.71.82,2.71,2.38v11.15Z"/><g id="g64"><path id="path66" class="cls-1" d="M177.95,142.05q-5.84,0-5.84-2.87h-8.76v11.2h-7.58V136.27h1.08a13,13,0,0,1,5.79,1.51,13.56,13.56,0,0,1,6.71-1.51,25,25,0,0,1,6.06.65q4.17,1,4.17,3.46v1.68Z"/></g><g id="g68"><path id="path70" class="cls-1" d="M219.77,150.28h-1.19c-.22,0-.54,0-1-.05a14,14,0,0,1-4.76-1.35,13.27,13.27,0,0,1-6.66,1.52,24.74,24.74,0,0,1-6.11-.7q-4.22-1.08-4.22-3.46v-9.9h2.22a17.2,17.2,0,0,1,1.84.11q3.52.38,3.52,2.82v8.44h8.77V136.27h7.58Z"/></g><g id="g72"><path id="path74" class="cls-1" d="M240.61,150.12a25.31,25.31,0,0,1-4.49.27V130.53h7.46v16.94q0,2-3,2.65"/></g><path id="path76" class="cls-1" d="M278.43,144.87h-11v2.81h11ZM267,150.39q-7.15,0-7.14-3.63v-1.08a3.11,3.11,0,0,1,2.38-3.14,14.15,14.15,0,0,1,4.39-.49h11.8v-2.87H267.33q-5.19,0-5.57-2.65v-.27h17.53a13.89,13.89,0,0,1,3.95.59q2.71.82,2.71,2.38v11.15Z"/><g id="g78"><path id="path80" class="cls-2" d="M261.49,115.94H161.13c-10.09-.1-25-6.84-25-25V47.32c0-2.57-1-11.17-11.17-11.17H47.71c-10.62,0-11.17,9.31-11.17,11.18V90.95c0,10.37,8.89,11.42,11.62,11.49h62.65a6.75,6.75,0,1,1,0,13.5H48c-10.09-.1-25-6.84-25-25V47.32c0-9.92,6.59-24.67,24.67-24.67H125c18.08,0,24.66,14.75,24.67,24.66V90.95c0,10.82,9.64,11.47,11.57,11.49H261.49c.12,0,11.57-.14,11.57-12.68,0-4.86-1.15-8.43-3.42-10.63-3.15-3-7.85-2.93-7.9-2.92H184.42c-10.09-.11-25-6.85-25-25v-3.9c0-9.92,6.59-24.67,24.67-24.67h77.77c18.08,0,24.66,14.75,24.67,24.66a6.75,6.75,0,0,1-6.74,6.76h0A6.75,6.75,0,0,1,273,47.38c-.05-2.65-1-11.23-11.17-11.23H184.1c-10.16,0-11.12,8.6-11.17,11.24v3.83c0,10.83,9.63,11.47,11.56,11.49h76.79c1.83-.06,10.64,0,17.54,6.53,5.12,4.84,7.72,11.74,7.72,20.51,0,19.07-15.38,26.18-25.07,26.18"/></g></g></g></svg>