<?xml version="1.0" encoding="UTF-8" standalone="no"?>
<!-- Generator: Adobe Illustrator 21.1.0, SVG Export Plug-In . SVG Version: 6.00 Build 0)  -->

<svg
   version="1.1"
   id="Laag_1"
   x="0px"
   y="0px"
   viewBox="0 0 1627.9604 319.00657"
   xml:space="preserve"
   sodipodi:docname="Logo Amarula Solutions horizontal Go Far inverted.svg"
   inkscape:version="1.2.2 (b0a8486541, 2022-12-01)"
   width="1627.9604"
   height="319.00656"
   xmlns:inkscape="http://www.inkscape.org/namespaces/inkscape"
   xmlns:sodipodi="http://sodipodi.sourceforge.net/DTD/sodipodi-0.dtd"
   xmlns:xlink="http://www.w3.org/1999/xlink"
   xmlns="http://www.w3.org/2000/svg"
   xmlns:svg="http://www.w3.org/2000/svg"><defs
   id="defs49"><rect
     x="604.74023"
     y="213.91016"
     width="693.70228"
     height="89.522454"
     id="rect332" /></defs><sodipodi:namedview
   id="namedview47"
   pagecolor="#ffffff"
   bordercolor="#666666"
   borderopacity="1.0"
   inkscape:pageshadow="2"
   inkscape:pageopacity="0.0"
   inkscape:pagecheckerboard="0"
   showgrid="false"
   showguides="true"
   inkscape:guide-bbox="true"
   inkscape:zoom="1"
   inkscape:cx="527.5"
   inkscape:cy="312.5"
   inkscape:window-width="1920"
   inkscape:window-height="1011"
   inkscape:window-x="0"
   inkscape:window-y="0"
   inkscape:window-maximized="1"
   inkscape:current-layer="Laag_1"
   inkscape:showpageshadow="2"
   inkscape:deskcolor="#d1d1d1"><sodipodi:guide
     position="-0.048323146,112.05003"
     orientation="0,-1"
     id="guide866"
     inkscape:locked="false" /><sodipodi:guide
     position="0.013858669,111.62236"
     orientation="1,0"
     id="guide868"
     inkscape:locked="false" /><sodipodi:guide
     position="437.74255,114.78463"
     orientation="0,-1"
     id="guide205"
     inkscape:locked="false" /><sodipodi:guide
     position="494.0969,208.35681"
     orientation="0,-1"
     id="guide207"
     inkscape:locked="false" /><sodipodi:guide
     position="705.49591,176.82254"
     orientation="1,0"
     id="guide270"
     inkscape:locked="false" /><sodipodi:guide
     position="1627.3864,179.03225"
     orientation="1,0"
     id="guide272"
     inkscape:locked="false" /><sodipodi:guide
     position="605.47623,210.41564"
     orientation="1,0"
     id="guide274"
     inkscape:locked="false" /><sodipodi:guide
     position="1526.0016,180.35633"
     orientation="1,0"
     id="guide276"
     inkscape:locked="false" /><sodipodi:guide
     position="951.7657,65.508783"
     orientation="1,0"
     id="guide386"
     inkscape:locked="false" /></sodipodi:namedview>
<style
   type="text/css"
   id="style2">
	.st0{clip-path:url(#SVGID_2_);}
	.st1{fill:#FDCB0E;}
	.st2{fill:#010202;}
</style>
<g
   id="g10_1_"
   transform="matrix(0.61187815,0,0,-0.61187815,50.461486,928.35184)">
	<g
   id="g12_1_">
		<g
   id="g11">
			<defs
   id="defs5">
				<rect
   id="SVGID_1_"
   x="2220.5"
   y="816"
   width="20.200001"
   height="14.2" />
			</defs>
			<clipPath
   id="SVGID_2_">
				<use
   xlink:href="#SVGID_1_"
   style="overflow:visible"
   id="use7" />
			</clipPath>
			<g
   id="g14_1_"
   class="st0"
   clip-path="url(#SVGID_2_)">
			</g>
		</g>
	</g>
</g>
<g
   id="g20_1_"
   transform="translate(20.037686,85.973929)">
	<path
   id="path22_1_"
   inkscape:connector-curvature="0"
   class="st1"
   d="m 26.3,-64.3 c 6.8,6.8 6.8,17.8 0,24.6 -6.8,6.8 -17.8,6.8 -24.6,0 -6.8,-6.8 -27.1,-38.1 -20.4,-44.9 6.8,-6.8 38.2,13.5 45,20.3" />
</g>
<g
   id="g24_1_"
   transform="translate(-13.424547,13.585571)"
   style="fill:#ffffff">
	<path
   id="path26_1_"
   inkscape:connector-curvature="0"
   class="st2"
   d="m 690.8,147.1 h -42.2 v 11.1 h 42 c 18.9,0 28.3,3.9 28.3,11.8 v 7.8 c 0,8.5 -9.6,12.8 -28.8,12.8 h -41.6 c -19.6,0 -29.4,-4.6 -29.4,-13.9 v -3.2 h 11.1 c 7.7,0 13.1,1.2 16.2,3.6 1.3,1.8 2,2.8 2.1,2.9 h 40.9 v -10.9 h -40.9 c -8.5,0 -14.6,-0.4 -18.1,-1.3 -7.6,-1.7 -11.3,-5.3 -11.3,-10.7 v -8.8 c 0,-8.8 9.6,-13.2 28.8,-13.2 h 41.6 c 6.2,0 11.9,0.7 17.2,2.1 8.1,2.1 12.2,5.5 12.2,10.1 v 5.9 c -17.6,0.6 -27,-1.4 -28.1,-6.1"
   style="fill:#ffffff" />
</g>
<path
   id="path28_1_"
   inkscape:connector-curvature="0"
   class="st2"
   d="m 816.27355,160.64437 h -42.8 v 33 h 42.8 z m 0.7,43.4 h -44.3 c -3.2,0 -6.9,-0.3 -10.9,-0.8 -11.8,-1.7 -17.6,-6.7 -17.6,-15.1 v -23.1 c 0,-10.5 9.5,-15.7 28.5,-15.7 h 44.3 c 3.4,0 6.2,0.1 8.6,0.4 13.2,1.1 19.7,6.3 19.7,15.5 v 22.9 c 0,10.6 -9.5,15.9 -28.3,15.9"
   style="fill:#ffffff" />
<g
   id="g30_1_"
   transform="translate(12.207253,8.7379704)"
   style="fill:#ffffff">
	<path
   id="path32_1_"
   inkscape:connector-curvature="0"
   class="st2"
   d="m 889.3,194.3 c -3.4,0.7 -9.2,1 -17.4,1 v -77 h 29 V 184 c -0.1,5.2 -3.9,8.6 -11.6,10.3"
   style="fill:#ffffff" />
</g>
<g
   id="g34_1_"
   transform="translate(28.550953,8.6656704)"
   style="fill:#ffffff">
	<path
   id="path36_1_"
   inkscape:connector-curvature="0"
   class="st2"
   d="m 1015.9,195 h -4.6 c -0.8,0 -2.1,-0.1 -3.8,-0.2 -6.2,-0.6 -12.3,-2.3 -18.5,-5.2 -6.9,3.9 -15.5,5.9 -25.8,5.9 -8.7,0 -16.6,-0.9 -23.7,-2.7 -10.9,-2.8 -16.4,-7.3 -16.4,-13.4 V 141 h 8.6 c 2.2,0 4.6,0.1 7.1,0.4 9.1,1 13.6,4.6 13.6,10.9 V 185 h 34 v -44.3 h 29.4 V 195 Z"
   style="fill:#ffffff" />
</g>
<g
   id="g38_1_"
   transform="translate(37.695053,8.6177704)"
   style="fill:#ffffff">
	<path
   id="path40_1_"
   inkscape:connector-curvature="0"
   class="st2"
   d="m 1086.7,195.5 c -2.8,0 -5.9,-0.2 -9.4,-0.6 -9.8,-1.1 -14.7,-4.8 -14.7,-10.9 v -32 h -17.2 v -11.3 h 17.2 v -22.2 c 8.5,0 14.3,0.3 17.2,0.8 7.8,1.5 11.8,4.8 11.8,9.9 V 141 h 21.2 c 0,1.4 -0.3,2.7 -0.8,4 -2.2,4.9 -9,7.3 -20.4,7.3 V 185 h 21.2 c -0.1,7 -8.7,10.5 -26.1,10.5"
   style="fill:#ffffff" />
</g>
<g
   id="g42_1_"
   transform="translate(48.446953,10.369771)"
   style="fill:#ffffff">
	<path
   id="path44_1_"
   inkscape:connector-curvature="0"
   class="st2"
   d="m 1170,178.4 c 0,5.5 -2.8,9.5 -8.4,12.2 -4.3,2.1 -9.5,3.1 -15.5,3.1 h -5.5 v -54.8 h 29.4 z m -29.4,-61.7 H 1170 V 128 h -29.4 z"
   style="fill:#ffffff" />
</g>
<path
   id="path46_1_"
   inkscape:connector-curvature="0"
   class="st2"
   d="m 1329.2736,160.64437 h -42.8 v 33 h 42.8 z m 0.6,43.4 h -44.3 c -3.2,0 -6.8,-0.3 -10.9,-0.8 -11.8,-1.7 -17.6,-6.7 -17.6,-15.1 v -23.1 c 0,-10.5 9.5,-15.7 28.5,-15.7 h 44.3 c 3.3,0 6.2,0.1 8.6,0.4 13.1,1.1 19.7,6.3 19.7,15.5 v 22.9 c 0,10.6 -9.4,15.9 -28.3,15.9"
   style="fill:#ffffff" />
<g
   id="g48_1_"
   transform="translate(78.110046,8.7134704)"
   style="fill:#ffffff">
	<path
   id="path50_1_"
   inkscape:connector-curvature="0"
   class="st2"
   d="m 1399.7,194.5 c -11.8,-1.7 -17.6,-6.2 -17.6,-13.7 v -29 h -34 v 43.4 h -29.4 v -54.8 h 4.2 c 7.1,0 14.6,2 22.4,5.9 7,-3.9 15.7,-5.9 26,-5.9 8.9,0 16.8,0.8 23.5,2.5 10.8,2.7 16.2,7.1 16.2,13.4 v 38.8 c -3.4,0.3 -7.2,0 -11.3,-0.6"
   style="fill:#ffffff" />
</g>
<g
   id="g52_1_"
   transform="translate(92.006546,13.585571)"
   style="fill:#ffffff">
	<path
   id="path54_1_"
   inkscape:connector-curvature="0"
   class="st2"
   d="m 1507.4,147.1 h -42.2 v 11.1 h 42 c 18.9,0 28.3,3.9 28.3,11.8 v 7.8 c 0,8.5 -9.6,12.8 -28.8,12.8 h -41.6 c -19.6,0 -29.4,-4.6 -29.4,-13.9 v -3.2 h 11.1 c 7.7,0 13.1,1.2 16.2,3.6 1.3,1.8 2,2.8 2.1,2.9 h 40.9 v -10.9 h -40.9 c -8.5,0 -14.6,-0.4 -18.1,-1.3 -7.5,-1.7 -11.3,-5.3 -11.3,-10.7 v -8.8 c 0,-8.8 9.6,-13.2 28.8,-13.2 h 41.5 c 6.2,0 11.9,0.7 17.2,2.1 8.1,2.1 12.2,5.5 12.2,10.1 v 5.9 c -17.5,0.6 -26.9,-1.4 -28,-6.1"
   style="fill:#ffffff" />
</g>
<path
   id="path56_1_"
   inkscape:connector-curvature="0"
   class="st1"
   d="m 676.60579,88.973273 h -42.01166 v 10.899996 h 42.01166 z M 632.9176,110.37326 c -18.2445,0 -27.31744,-4.7 -27.31744,-14.099987 v -4.2 c 0,-6 3.05719,-10.100004 9.07294,-12.200004 3.45167,-1.3 9.07294,-1.9 16.76522,-1.9 h 45.16747 v -11 h -42.40614 c -13.21494,0 -20.3155,-3.4 -21.30169,-10.3 v -1 h 67.06088 c 4.93094,0 9.96051,0.8 15.08869,2.3 6.90333,2.1 10.35499,5.2 10.35499,9.2 v 43.199991 z"
   style="stroke-width:0.993071" />
<g
   id="g58_1_"
   transform="translate(9.4469251,39.529869)">
	<path
   id="path60_1_"
   inkscape:connector-curvature="0"
   class="st1"
   d="m 881.6,70.9 c -5.5,0 -11,-0.7 -16.6,-2.1 -8.3,-1.8 -12.4,-4.6 -12.4,-8.4 v -33 h -18.3 c 0.7,1.7 1,3.2 1,4.6 V 70.8 H 835 c -6,0 -11.7,-0.8 -17,-2.3 -7.8,-2.2 -11.8,-5.6 -11.8,-10.1 v -31 H 788.6 V 70.8 H 759.4 V 16.3 h 4 c 7.7,0 15.2,1.8 22.5,5.5 6.7,-3.6 13.6,-5.5 20.8,-5.5 10.2,0 18.1,2 23.7,6.1 4.3,-2.2 7,-3.6 8,-4 3.4,-1.4 7.8,-2.1 13.4,-2.1 20,0 30,4.5 30,13.6 v 40.9 h -0.2 z" />
</g>
<path
   id="path62_1_"
   inkscape:connector-curvature="0"
   class="st1"
   d="m 1026.5027,88.973273 h -42.60005 v 10.899996 h 42.60005 z m -44.30005,21.399987 c -18.5,0 -27.70013,-4.7 -27.70013,-14.099987 v -4.2 c 0,-6 3.10005,-10.100004 9.20013,-12.200004 3.5,-1.3 9.2,-1.9 17,-1.9 h 45.80005 v -11 h -43.00005 c -13.4,0 -20.6,-3.4 -21.6,-10.3 v -1 h 68.00005 c 5,0 10.1,0.8 15.3,2.3 7,2.1 10.5,5.2 10.5,9.2 v 43.199991 z" />
<g
   id="g64_1_"
   transform="translate(45.326325,43.226169)">
	<path
   id="path66_1_"
   inkscape:connector-curvature="0"
   class="st1"
   d="m 1159.5,34.9 c -15.1,0 -22.7,-3.7 -22.7,-11.1 h -34 v 43.4 h -29.4 V 12.4 h 4.2 c 7.1,0 14.6,2 22.5,5.9 7,-3.9 15.7,-5.9 26,-5.9 8.9,0 16.8,0.8 23.5,2.5 10.8,2.6 16.2,7.1 16.2,13.4 v 6.5 h -6.3 z" />
</g>
<g
   id="g68_1_"
   transform="translate(63.879118,39.577769)">
	<path
   id="path70_1_"
   inkscape:connector-curvature="0"
   class="st1"
   d="m 1303.2,70.4 h -4.6 c -0.8,0 -2.1,-0.1 -3.8,-0.2 -6.2,-0.6 -12.3,-2.3 -18.5,-5.2 -6.9,3.9 -15.5,5.9 -25.8,5.9 -8.7,0 -16.6,-0.9 -23.7,-2.7 -10.9,-2.8 -16.4,-7.3 -16.4,-13.4 V 16.3 h 8.6 c 2.2,0 4.6,0.1 7.1,0.4 9.1,1 13.7,4.6 13.7,10.9 v 32.7 h 34 V 16.1 h 29.4 z" />
</g>
<g
   id="g72_1_"
   transform="translate(75.364435,39.785811)">
	<path
   id="path74_1_"
   inkscape:connector-curvature="0"
   class="st1"
   d="m 1374.8,69.7 c -3.4,0.7 -9.2,1 -17.4,1 v -77 h 29 v 65.7 c -0.1,5.2 -3.9,8.6 -11.6,10.3" />
</g>
<path
   id="path76_1_"
   inkscape:connector-curvature="0"
   class="st1"
   d="m 1598.0827,89.127814 h -42.6 v 10.899996 h 42.6 z m -44.3,21.399986 c -18.5,0 -27.7,-4.7 -27.7,-14.099986 v -4.2 c 0,-6 3.1,-10.100004 9.2,-12.200004 3.5,-1.3 9.2,-1.9 17,-1.9 h 45.8 v -11 h -43 c -13.4,0 -20.6,-3.4 -21.6,-10.3 v -1 h 68 c 5,0 10.1,0.8 15.3,2.3 7,2.1 10.5,5.2 10.5,9.2 v 43.19999 z" />
<g
   id="g78_1_"
   transform="translate(124.58169,39.921729)"
   style="fill:#ffffff">
	<path
   id="path80_1_"
   inkscape:connector-curvature="0"
   class="st2"
   d="M 336.2,164.3 H 159.4 c -17.8,-0.2 -44,-12.1 -44,-44 V 43.4 C 115.3,38.9 113.6,23.7 95.7,23.7 H -40.5 c -18.7,0 -19.7,16.4 -19.7,19.7 v 76.9 c 0,18.3 15.7,20.1 20.5,20.2 H 70.7 c 6.6,0 11.9,5.3 11.9,11.9 0,6.6 -5.3,11.9 -11.9,11.9 H -39.9 c -17.8,-0.2 -44,-12.1 -44,-44 V 43.4 C -83.9,25.9 -72.4,0 -40.5,0 H 95.6 c 31.9,0 43.5,26 43.5,43.5 v 76.9 c 0,19.1 17,20.2 20.4,20.2 h 176.7 c 0.2,0 20.4,-0.3 20.4,-22.3 0,-8.6 -2,-14.9 -6,-18.7 -5.5,-5.4 -13.8,-5.2 -13.9,-5.2 h -0.5 -135.8 c -17.8,-0.2 -44,-12.1 -44,-44 V 43.5 C 156.4,25.9 168,0 199.8,0 H 336 c 0.2,0 0.3,0 0.5,0 0.2,0 0.3,0 0.5,0 31.9,0 43.4,26 43.5,43.5 0,6.6 -5.3,11.9 -11.9,11.9 v 0 c -6.5,0 -11.8,-5.3 -11.9,-11.8 -0.1,-4.7 -1.8,-19.8 -19.7,-19.8 -0.2,0 -0.3,0 -0.5,0 -0.2,0 -0.3,0 -0.5,0 H 199.8 c -17.9,0 -19.6,15.2 -19.7,19.8 v 6.8 c 0,19.1 17,20.2 20.4,20.3 h 135.3 c 3.2,-0.1 18.7,0 30.9,11.5 9,8.5 13.6,20.7 13.6,36.1 0.1,33.5 -27,46 -44.1,46"
   style="fill:#ffffff" />
</g>
<text
   xml:space="preserve"
   id="text330"
   style="font-size:74.7738px;text-align:start;white-space:pre;shape-inside:url(#rect332);display:inline;fill:#ffffff"
   x="438.37213"
   y="0"
   transform="matrix(0.9903726,0,0,1,346.83045,19.485523)"><tspan
     x="604.74023"
     y="285.42386"
     id="tspan1028"><tspan
       style="font-style:italic;font-weight:bold;font-family:Ubuntu;-inkscape-font-specification:'Ubuntu Bold Italic'"
       id="tspan1026">Go Far, Go Together</tspan></tspan></text></svg>
